PathFileType	4	(X/Y/Z)	C:\Users\chris\Documents\GitHub\baseballds\vids\pitch5_Sports2D\pitch5_Sports2D_px_person00.trc
DataRate	CameraRate	NumFrames	NumMarkers	Units	OrigDataRate	OrigDataStartFrame	OrigNumFrames
30	30	10	22	m	30	0	149
Frame#	Time	Hip			RHip			RKnee			RAnkle			RBigToe			RSmallToe			RHeel			LHip			LKnee			LAnkle			LBigToe			LSmallToe			LHeel			Neck			Head			Nose			RShoulder			RElbow			RWrist			LShoulder			LElbow			LWrist		
		X1	Y1	Z1	X2	Y2	Z2	X3	Y3	Z3	X4	Y4	Z4	X5	Y5	Z5	X6	Y6	Z6	X7	Y7	Z7	X8	Y8	Z8	X9	Y9	Z9	X10	Y10	Z10	X11	Y11	Z11	X12	Y12	Z12	X13	Y13	Z13	X14	Y14	Z14	X15	Y15	Z15	X16	Y16	Z16	X17	Y17	Z17	X18	Y18	Z18	X19	Y19	Z19	X20	Y20	Z20	X21	Y21	Z21	X22	Y22	Z22
0	0.0	726.2246667654263	544.048501986995	0.0	674.3389109205837	562.2085485997808	0.0	674.3391189869812	767.1567508277029	0.0	669.1505979989356	930.5967435201146	0.0	674.3394532178102	998.0484417098478	0.0	640.6134382789529	992.8594215979259	0.0	674.3393049339161	948.756630217325	0.0	775.5162057567238	564.8028209526625	0.0	796.2704751282822	761.9683593008881	0.0	829.9964610799364	922.8137903535998	0.0	796.2703387214764	995.4540594635595	0.0	832.5900361833086	992.8598383486735	0.0	840.3732868076977	948.7566895398811	0.0	713.253596996281	256.0825015140295	0.0	739.1961843873937	128.96313875093608	0.0	780.7039002483507	206.79203704009112	0.0	617.2644549045845	305.3739135374425	0.0	599.1046537216812	448.05960236736144	0.0	695.09369941099	440.2770528676054	0.0	809.242061076331	297.59143854114404	0.0	840.3737911184294	440.27725006669874	0.0	814.4311530438746	458.43448730372927	0.0
1	0.03333333333333333	726.3476242128193	546.8152632203391	0.0	674.5301400301635	566.0406722788224	0.0	676.5637621136779	766.5372561175478	0.0	667.5049990625358	930.2148553105079	0.0	675.5657168271143	998.4146713786832	0.0	641.6263511770464	994.3689220478461	0.0	672.7143551016104	951.2537203815343	0.0	777.214562927148	565.9374898429088	0.0	796.2679252686343	761.1298119984469	0.0	828.7010943283003	925.040975413417	0.0	794.0491935093021	993.9138970393972	0.0	830.8505925928113	993.1596530829986	0.0	839.2880065382548	951.3240166232138	0.0	713.0406468649973	258.9818253416958	0.0	742.4589539162876	135.6339907157932	0.0	779.8764466094508	214.63123207702952	0.0	618.7937502336399	307.89266805661464	0.0	603.0632871722153	449.6817853241064	0.0	696.3792271022842	438.1683681778895	0.0	808.4785016985626	299.07589813863683	0.0	841.075642459499	438.1777544707101	0.0	812.2011736321183	454.8648468914306	0.0
2	0.06666666666666667	726.2657275947649	548.6330531861012	0.0	674.7272136277845	568.1853179870913	0.0	677.2820365646533	766.2077372741173	0.0	666.5748180848807	930.197035725806	0.0	675.5469289297517	998.905598907597	0.0	641.8538438151309	995.0605778885138	0.0	672.0494136011436	952.3998371412545	0.0	778.2020729037297	566.8052100633485	0.0	796.5357447946528	760.6706323857068	0.0	828.081283259826	926.8795077655934	0.0	792.5213569256778	993.7228287139069	0.0	829.3392871718875	993.5958921839546	0.0	838.4474877274811	953.1747343535178	0.0	714.7630913450823	261.76485613794875	0.0	746.4738086329764	140.47568526564848	0.0	776.5754923077182	222.85981823260792	0.0	620.9512667790045	309.12113542587423	0.0	605.7499494318054	450.7561077688057	0.0	695.903164710956	435.4543189740357	0.0	809.6414611435874	301.19311383437406	0.0	841.1878894928487	440.3484948667911	0.0	806.5381660714022	452.85422468264005	0.0
3	0.1	726.2787266134872	549.9162591580006	0.0	675.1339995833919	568.8820380120173	0.0	676.4838260596109	766.4928445755158	0.0	666.4879153036665	930.4862703612677	0.0	674.6958011536341	999.6258336980984	0.0	641.3864105889877	995.0157723023761	0.0	672.417878496632	952.1190569904545	0.0	778.4195161252269	568.048490697774	0.0	797.260092165244	761.4117888684845	0.0	828.0715627994525	928.0534827938365	0.0	792.4019260420351	994.8697278304569	0.0	828.8350959138733	994.2955370342238	0.0	837.7744311582346	954.0877413590188	0.0	718.3435594364202	264.20374129375097	0.0	750.1095501096256	143.75490992225514	0.0	770.7334353641847	231.29259333876968	0.0	623.5129869123191	309.4920171803143	0.0	606.6602876114428	451.13115790530117	0.0	693.3137240124903	432.6835274568263	0.0	812.5174293329944	303.9324757283993	0.0	840.7730847479598	445.3387132161521	0.0	799.104502592819	452.5118907123462	0.0
4	0.13333333333333333	726.4662287920773	551.5136418097028	0.0	675.6826920605478	569.7101869698889	0.0	675.469821735405	766.8509857519908	0.0	666.9861480126051	931.2608715985438	0.0	673.8722471923047	1000.4750846017052	0.0	640.7859025702724	994.9436194988182	0.0	672.9380053906248	952.2493629505975	0.0	778.1219507657479	570.4085583965336	0.0	798.0424850924055	763.2941159337388	0.0	828.1237332363607	929.1913224542329	0.0	793.0122480180769	996.0944491292087	0.0	829.1428827470343	995.3355601953579	0.0	837.3830741504854	955.033986557185	0.0	722.114247493081	266.3144721775296	0.0	752.0600827853295	147.32853118259234	0.0	764.6453304899767	238.47706815599025	0.0	625.5537468283093	310.1954153511739	0.0	605.9853600936726	450.72834835531427	0.0	689.1731554800892	430.74841205793143	0.0	815.2420982509238	306.7276761911573	0.0	840.3253054312237	448.58814134541905	0.0	795.688339697184	454.60056149280604	0.0
5	0.16666666666666666	726.7435952055685	552.9148731464076	0.0	676.0253610505719	570.8499592328125	0.0	675.2642340617612	766.5003071218605	0.0	667.4943983799449	932.8504939143784	0.0	673.1859616579958	1001.2385857714451	0.0	640.1837313243664	995.442665171661	0.0	672.8331711718383	954.3199028651752	0.0	777.5859404352209	572.69194974515	0.0	798.0670638398512	764.8739650815369	0.0	828.0827856509516	930.8183306886672	0.0	792.5435643270367	996.7649488593563	0.0	828.7151926893556	996.7590312479489	0.0	837.6325342470843	956.6671864687055	0.0	724.5653619418507	268.46252254379516	0.0	752.5735581053904	151.88159485671554	0.0	760.6188316855986	243.27843176394626	0.0	626.7697325188559	311.3182381575212	0.0	604.0656849925595	449.3887560762571	0.0	684.0642251274127	429.7447593416978	0.0	816.4356026133464	308.96624822461433	0.0	839.7447362007799	448.9163966363452	0.0	798.4946025481989	459.7473084985879	0.0
6	0.2	726.9541060966642	553.1361897918397	0.0	676.0934631935385	571.2783628047857	0.0	675.6893585646077	765.835343851189	0.0	667.3410245669128	934.8236355284552	0.0	672.5904779052512	1001.904976393804	0.0	639.3548323069763	996.4198557056236	0.0	672.3380821443486	957.1261374998747	0.0	776.996389688022	573.0107885181105	0.0	797.0525010622171	765.2495545095267	0.0	828.0575832951513	932.042901935719	0.0	790.8496766852043	997.8446872126341	0.0	827.147809875142	998.4706861412419	0.0	838.2883623003272	957.8139029937133	0.0	725.4263547010245	270.8946847134095	0.0	752.5456456776649	156.08270200704635	0.0	758.979518156412	246.64775664369517	0.0	627.46751284058	312.2401455939788	0.0	601.6536440808075	448.045908918907	0.0	679.2359050182848	429.22770568359834	0.0	816.2313521015255	310.68931328830195	0.0	837.8677072046673	449.624038981789	0.0	802.2902343568901	465.79692894322363	0.0
7	0.23333333333333334	726.5657687432749	552.936966666915	0.0	675.8806030172268	571.4266166653497	0.0	676.0692404208069	766.0479521979244	0.0	666.5418625502163	936.255959889397	0.0	672.3646686040629	1002.4413656990274	0.0	638.6841390273594	997.3126059943783	0.0	671.8154239806042	958.3889794105776	0.0	776.2267806281245	572.3645507558682	0.0	795.6521164788364	765.4239034033624	0.0	827.8510820287456	932.0618311078752	0.0	789.6632498566352	999.7410222684093	0.0	825.7710430986147	1000.1017059169693	0.0	838.6613241623693	957.4972409901324	0.0	725.359726687586	273.409180857721	0.0	752.3017131049369	158.82542296694817	0.0	758.3503897124594	249.86671111374602	0.0	627.3664783811852	313.0837995034358	0.0	599.7708795267763	448.46269024417245	0.0	676.1602628389035	429.09970713796196	0.0	815.3302794703751	312.412333273046	0.0	834.3086767124271	453.43917639467566	0.0	802.007544794932	468.3251438253418	0.0
8	0.26666666666666666	725.5855488975668	553.8271305027228	0.0	675.1930290095097	572.4301722376783	0.0	675.9870430094588	767.6713668498128	0.0	665.7833582740686	936.9084935577971	0.0	672.4448282370422	1002.5287853437776	0.0	638.799752719399	997.7878471683671	0.0	671.1872633309072	958.0452794364111	0.0	775.159812627852	573.2721267467192	0.0	794.6254036149699	766.3158696001318	0.0	827.280925253097	931.5172534904774	0.0	790.0806394867501	1000.9616830071045	0.0	825.6496102391436	1001.0689163685618	0.0	838.5178937232267	956.6710838220225	0.0	724.7323824955738	275.6111413464523	0.0	751.5694083406323	160.24376667119432	0.0	758.0557085184184	251.86455247711342	0.0	626.2841749786068	314.30825348645715	0.0	598.4987377702198	450.59232840095024	0.0	674.6120719918118	429.8285584040183	0.0	813.9111231074219	314.0449637905981	0.0	830.9732515896347	458.89628521484167	0.0	798.5314548109807	465.06911271352624	0.0
9	0.3	724.6683215479959	555.781610736274	0.0	674.0455345564253	574.0862845917225	0.0	675.1148232361252	770.0444174308363	0.0	665.5040370315564	937.323560593129	0.0	672.1890859325299	1002.3856144225934	0.0	639.4020877990461	998.1246563073964	0.0	670.8592621053606	957.7201009220483	0.0	774.1236772550928	575.8123866154385	0.0	793.9199799353519	767.1057387603257	0.0	826.3683019468245	931.6029747675585	0.0	791.673248630423	1000.781497035413	0.0	826.865039320345	1000.9734709599622	0.0	838.0296615236584	956.8251874183695	0.0	723.0843156554843	277.30723380117524	0.0	750.0078555351774	161.10102761283008	0.0	758.3237341388726	251.4900446961872	0.0	624.7572629819466	315.6947280585872	0.0	597.156997909092	452.67310672286135	0.0	672.5114362790898	431.34993989633375	0.0	811.9085180239024	315.1555504672866	0.0	829.5299696450506	462.60884784441544	0.0	792.2418267535661	461.547507130006	0.0
